<?xml version="1.0" encoding="UTF-8" standalone="no"?>
<!-- Created with Inkscape (http://www.inkscape.org/) -->

<svg
   width="78.415154mm"
   height="52.394737mm"
   viewBox="0 0 78.415154 52.394737"
   version="1.1"
   id="svg1"
   xmlns="http://www.w3.org/2000/svg"
   xmlns:svg="http://www.w3.org/2000/svg">
  <defs
     id="defs1" />
  <g
     id="layer1"
     transform="translate(-58.708772,-79.164683)">
    <path
       id="path1-3"
       style="fill:#ef4444;fill-opacity:1;stroke-width:0.264583"
       d="m 110.92656,79.165167 a 26.197224,26.197224 0 0 1 26.19737,26.197373 26.197224,26.197224 0 0 1 -26.19737,26.19685 26.197224,26.197224 0 0 1 -13.011089,-3.46594 26.197224,26.197224 0 0 0 13.186279,-22.73091 26.197224,26.197224 0 0 0 -13.186279,-22.730913 26.197224,26.197224 0 0 1 13.011089,-3.46646 z" />
    <path
       id="path1-9"
       style="fill:#3b82f6;fill-opacity:1;stroke-width:0.264583"
       d="m 84.906136,79.164677 a 26.197224,26.197224 0 0 1 13.011099,3.46645 26.197224,26.197224 0 0 0 -13.186279,22.730923 26.197224,26.197224 0 0 0 13.186279,22.73091 26.197224,26.197224 0 0 1 -13.011099,3.46645 26.197224,26.197224 0 0 1 -26.19736,-26.19736 26.197224,26.197224 0 0 1 26.19736,-26.197373 z" />
    <path
       id="path1-3-3"
       style="fill:#22c55e;fill-opacity:1;stroke-width:0.264583"
       d="M 97.916826,82.630987 A 26.197224,26.197224 0 0 1 111.1031,105.3619 26.197224,26.197224 0 0 1 97.916826,128.09281 26.197224,26.197224 0 0 1 84.730546,105.3619 26.197224,26.197224 0 0 1 97.916826,82.630987 Z" />
  </g>
</svg>
